<svg id="Layer_1" data-name="Layer 1" xmlns="http://www.w3.org/2000/svg" xmlns:xlink="http://www.w3.org/1999/xlink" viewBox="0 0 512 512"><defs><style>.cls-1{fill:url(#linear-gradient);}.cls-2{fill:#fff;}</style><linearGradient id="linear-gradient" y1="256" x2="512" y2="256" gradientUnits="userSpaceOnUse"><stop offset="0" stop-color="#ec3748"/><stop offset="1" stop-color="#f55b43"/></linearGradient></defs><title>PEt</title><circle class="cls-1" cx="256" cy="256" r="256"/><path class="cls-2" d="M159.76,294.08c12.24,0,22.19-13.35,22.19-29.77s-9.95-29.78-22.19-29.78-22.18,13.36-22.18,29.78,9.95,29.77,22.18,29.77Zm0,0"/><path class="cls-2" d="M212.65,294.08c12.22,0,22.18-13.35,22.18-29.77s-10-29.78-22.18-29.78-22.19,13.36-22.19,29.78,9.95,29.77,22.19,29.77Zm0,0"/><path class="cls-2" d="M254.06,279.23c-9.62-1.9-19.11,6.59-21.62,19.34s3.05,24.19,12.68,26.08,19.12-6.59,21.63-19.33-3.08-24.2-12.69-26.09Zm0,0"/><path class="cls-2" d="M140,298.57c-2.51-12.75-12-21.24-21.63-19.34s-15.19,13.35-12.68,26.09,12,21.23,21.63,19.33,15.19-13.34,12.68-26.08Zm0,0"/><path class="cls-2" d="M219.69,331.34a33.93,33.93,0,0,0-67,0,33.92,33.92,0,1,0,33.5,58.51,33.9,33.9,0,0,0,53.9-27.4,34,34,0,0,0-20.42-31.11Zm0,0"/><path class="cls-2" d="M299.36,175.17c12.23,0,22.18-13.35,22.18-29.77s-10-29.78-22.18-29.78S277.17,129,277.17,145.4s9.95,29.77,22.19,29.77Zm0,0"/><path class="cls-2" d="M352.24,175.17c12.22,0,22.18-13.35,22.18-29.77s-10-29.78-22.18-29.78S330.05,129,330.05,145.4s9.95,29.77,22.19,29.77Zm0,0"/><path class="cls-2" d="M393.66,160.32c-9.63-1.89-19.12,6.6-21.63,19.34s3.06,24.19,12.68,26.08,19.12-6.59,21.63-19.32-3.07-24.21-12.68-26.1Zm0,0"/><path class="cls-2" d="M266.88,205.74c9.62-1.89,15.19-13.35,12.69-26.07s-12-21.24-21.63-19.35-15.19,13.35-12.68,26.1,12,21.22,21.62,19.32Zm0,0"/><path class="cls-2" d="M359.29,212.43a33.93,33.93,0,0,0-67,0A33.92,33.92,0,1,0,325.79,271a33.92,33.92,0,1,0,33.5-58.52Zm0,0"/></svg>