<svg id="Layer_1" data-name="Layer 1" xmlns="http://www.w3.org/2000/svg" xmlns:xlink="http://www.w3.org/1999/xlink" viewBox="0 0 512 512"><defs><style>.cls-1{fill:url(#linear-gradient);}.cls-2{fill:#f4f4f4;}.cls-3{fill:#fff;}</style><linearGradient id="linear-gradient" y1="256" x2="512" y2="256" gradientUnits="userSpaceOnUse"><stop offset="0" stop-color="#ec3748"/><stop offset="1" stop-color="#f55b43"/></linearGradient></defs><title>Artboard 1</title><circle class="cls-1" cx="256" cy="256" r="256"/><rect class="cls-2" x="133.96" y="401.37" width="244.07" height="28.71"/><rect class="cls-3" x="133.96" y="401.37" width="122.04" height="28.71"/><path class="cls-2" d="M256,401.37h71.79a28.72,28.72,0,0,0-28.72-28.72,28.71,28.71,0,0,1-28.71-28.71V300.87H256"/><path class="cls-3" d="M256,300.87H241.64v43.07a28.71,28.71,0,0,1-28.71,28.71,28.72,28.72,0,0,0-28.72,28.72H256"/><path class="cls-2" d="M320.61,229.08h7.18a71.79,71.79,0,0,0,71.78-71.79V114.22H327.79v28.72h43.07v14.35a43.07,43.07,0,0,1-43.07,43.08"/><path class="cls-3" d="M191.39,229.08h-7.18a71.79,71.79,0,0,1-71.78-71.79V114.22h71.78v28.72H141.14v14.35a43.07,43.07,0,0,0,43.07,43.08"/><path class="cls-2" d="M256,114.22h79v52.91a203.09,203.09,0,0,1-50.25,133.74H256"/><path class="cls-3" d="M256,300.87H227.29A203.09,203.09,0,0,1,177,167.13V114.22h79"/></svg>